# xmcd
#
# Track frame offsets:
#	150
#	16400
#	35857
#	49943
#	66526
#	83134
#	96017
#	107344
#	125031
#	144057
#	160118
#	179132
#	193426
#	206723
#	219798
#	232269
#	249453
#
# Disc length: 3510 seconds
#
# Revision: 1
# Processed by: cddbd v1.5.2PL0 Copyright (c) Steve Scherf et al.
# Submitted via: audiograbber 1.83.01
#
DISCID=fe0db411
DTITLE=COMPILATION - ESP452-03
DYEAR=1900
DGENRE=
TTITLE0=Bellamy Brothers, The - If I Said You Had A Beautiful Body (Would You H
TTITLE0=old It Against Me)
TTITLE1=Gene Watson - Farewell Party
TTITLE2=Don Williams - Tulsa Time
TTITLE3=Dolly Parton - Old Flames Can't Hold A Candle To You
TTITLE4=Alabama - Tennessee River
TTITLE5=George Jones - Still Doin' Time
TTITLE6=Mel McDaniel - Louisiana Saturday Night
TTITLE7=Ronnie Milsap - What A Difference You Made In My Life
TTITLE8=Crystal Gayle - Half The Way
TTITLE9=Alabama - Love In The First Degree
TTITLE10=Don Williams - I Believe In You
TTITLE11=Dottie West - A Lesson In Leavin'
TTITLE12=Johnny Lee - One In A Million
TTITLE13=Anne Murray - I Just Fall In Love Again
TTITLE14=Gene Watson - Should I Come Home (Or Should I Go Crazy)
TTITLE15=Conway Twitty - Don't Take It Away
TTITLE16=Eddie Rabbitt - Every Which Way But Loose
EXTD=
EXTT0=
EXTT1=
EXTT2=
EXTT3=
EXTT4=
EXTT5=
EXTT6=
EXTT7=
EXTT8=
EXTT9=
EXTT10=
EXTT11=
EXTT12=
EXTT13=
EXTT14=
EXTT15=
EXTT16=
PLAYORDER=
